<svg width="1080" height="1080" viewBox="0 0 1080 1080" fill="none" xmlns="http://www.w3.org/2000/svg">
<rect width="1080" height="1080" rx="540" fill="white"/>
<path d="M984.496 407.463L821.841 165.957C819.008 161.75 812.779 161.86 810.095 166.165L406.445 813.654C403.779 817.931 397.602 818.073 394.742 813.923L192.298 520.23C190.79 518.041 190.651 515.187 191.94 512.862L289.935 336.16C292.431 331.658 298.77 331.3 301.757 335.493L477.673 582.408C480.581 586.489 486.709 586.283 489.336 582.015L592.153 414.945C593.569 412.645 593.535 409.737 592.067 407.471L497.974 262.212C496.684 260.221 494.473 259.018 492.099 259.018H240.638C238.098 259.018 235.758 260.393 234.522 262.611L95.0891 512.907C93.8073 515.208 93.9256 518.033 95.3952 520.219L364.134 919.906C365.435 921.84 367.613 923 369.943 923H671.807C674.251 923 676.518 921.725 677.788 919.637L984.671 415.01C986.091 412.676 986.022 409.729 984.496 407.463Z" fill="black"/>
</svg>
