<svg width="1080" height="1080" viewBox="0 0 1080 1080" fill="none" xmlns="http://www.w3.org/2000/svg">
<rect width="1080" height="1080" rx="540" fill="white"/>
<path d="M848.497 447.147L737.927 282.959C735.093 278.751 728.864 278.861 726.18 283.166L448.797 728.158C446.131 732.436 439.954 732.578 437.093 728.428L298.836 527.83C297.327 525.641 297.188 522.787 298.477 520.463L364.379 401.617C366.876 397.115 373.215 396.757 376.202 400.95L494.772 567.391C497.679 571.473 503.808 571.266 506.434 566.998L575.581 454.629C576.996 452.329 576.963 449.421 575.495 447.155L511.39 348.181C510.1 346.189 507.888 344.986 505.515 344.986H332.97C330.431 344.986 328.091 346.362 326.855 348.58L231.089 520.508C229.807 522.808 229.925 525.634 231.395 527.819L417.009 803.906C418.309 805.84 420.487 807 422.818 807H630.507C632.951 807 635.218 805.725 636.488 803.637L848.671 454.694C850.091 452.36 850.023 449.413 848.497 447.147Z" fill="black"/>
</svg>
